<svg id="Layer_1" data-name="Layer 1" xmlns="http://www.w3.org/2000/svg" width="148" height="27.26" viewBox="0 0 148 27.26"><defs><style>.cls-1{fill:#0087d5;}.cls-2{fill:#666;}</style></defs><path class="cls-1" d="M1.27,3.46H9.59V30.3H1.27Z" transform="translate(-1.27 -3.46)"/><path class="cls-1" d="M15.05,10.85H22V14a10.53,10.53,0,0,1,3.15-2.78A8.33,8.33,0,0,1,29,10.42a6.35,6.35,0,0,1,4.84,1.84q1.74,1.85,1.74,5.68V30.3H28.11V19.62A3.9,3.9,0,0,0,27.43,17a2.42,2.42,0,0,0-1.89-.76,2.68,2.68,0,0,0-2.19,1A5.94,5.94,0,0,0,22.51,21V30.3H15.05Z" transform="translate(-1.27 -3.46)"/><path class="cls-1" d="M54.55,22.66l7.1.79a10,10,0,0,1-1.92,3.85,9.1,9.1,0,0,1-3.41,2.53,13.39,13.39,0,0,1-5.28.9,19.68,19.68,0,0,1-5.16-.58,9.1,9.1,0,0,1-3.54-1.86,9.54,9.54,0,0,1-2.33-3,10.65,10.65,0,0,1-.84-4.6,10.73,10.73,0,0,1,1-5,9,9,0,0,1,2-2.63,9.17,9.17,0,0,1,2.67-1.72,14.74,14.74,0,0,1,5.58-.9q4.76,0,7.26,1.7a9,9,0,0,1,3.5,5l-7,.93A3.25,3.25,0,0,0,53,16.15a3.88,3.88,0,0,0-2.33-.63,3.76,3.76,0,0,0-3,1.32,6,6,0,0,0-1.13,4,5.17,5.17,0,0,0,1.13,3.62,3.73,3.73,0,0,0,2.88,1.23A4,4,0,0,0,53.07,25,4.47,4.47,0,0,0,54.55,22.66Z" transform="translate(-1.27 -3.46)"/><path class="cls-1" d="M74.07,3.46v7.39h4.11v5.46H74.07v6.87a3.63,3.63,0,0,0,.24,1.64,1.37,1.37,0,0,0,1.29.62A8,8,0,0,0,77.91,25l.55,5.15a24.41,24.41,0,0,1-5.16.61A8.89,8.89,0,0,1,69.2,30a4.3,4.3,0,0,1-2-2.16,12.78,12.78,0,0,1-.63-4.71V16.31H63.87V10.85h2.75V7.28Z" transform="translate(-1.27 -3.46)"/><path class="cls-1" d="M102.21,30.3h-7V27.14a10,10,0,0,1-3.14,2.76,8.32,8.32,0,0,1-3.89.83,6.36,6.36,0,0,1-4.82-1.84Q81.66,27,81.66,23.22V10.85h7.49V21.54a3.94,3.94,0,0,0,.68,2.6,2.39,2.39,0,0,0,1.89.77,2.68,2.68,0,0,0,2.18-1,5.89,5.89,0,0,0,.85-3.68V10.85h7.46Z" transform="translate(-1.27 -3.46)"/><path class="cls-1" d="M106.82,10.85h7V14a7.59,7.59,0,0,1,2.07-2.84,4.4,4.4,0,0,1,2.65-.78,7.85,7.85,0,0,1,3.6,1l-2.3,5.31a6,6,0,0,0-2.09-.55,2.58,2.58,0,0,0-2.27,1.21q-1.15,1.71-1.15,6.37V30.3h-7.49Z" transform="translate(-1.27 -3.46)"/><path class="cls-1" d="M145.59,22.41h-15a4.91,4.91,0,0,0,1,2.67,3.54,3.54,0,0,0,2.82,1.26,4.23,4.23,0,0,0,2.09-.56,5,5,0,0,0,1.3-1.23l7.35.68a10.57,10.57,0,0,1-4.07,4.22,14.69,14.69,0,0,1-6.82,1.28,14.07,14.07,0,0,1-6.08-1.09,9,9,0,0,1-3.67-3.46,10.44,10.44,0,0,1-1.45-5.57A9.76,9.76,0,0,1,126,13.24q2.91-2.82,8.06-2.82a14.39,14.39,0,0,1,6.59,1.26,8.5,8.5,0,0,1,3.68,3.66,13.33,13.33,0,0,1,1.27,6.23ZM138,18.84a4.94,4.94,0,0,0-1.17-3.07,3.71,3.71,0,0,0-5.34.47,5.13,5.13,0,0,0-.86,2.6Z" transform="translate(-1.27 -3.46)"/><path class="cls-2" d="M142.8,8.25a3.22,3.22,0,0,1,1.61-2.8A3.24,3.24,0,0,1,146,5a3.23,3.23,0,0,1,3.23,3.24,3.3,3.3,0,0,1-.41,1.59A3.25,3.25,0,0,1,144.39,11a3.11,3.11,0,0,1-1.17-1.19A3.15,3.15,0,0,1,142.8,8.25Zm.53,0a2.69,2.69,0,0,0,.36,1.36,2.76,2.76,0,0,0,1,1A2.65,2.65,0,0,0,146,11a2.69,2.69,0,0,0,1.36-.36,2.66,2.66,0,0,0,1.34-2.34,2.71,2.71,0,0,0-.36-1.36,2.61,2.61,0,0,0-1-1,2.71,2.71,0,0,0-2.7,0,2.73,2.73,0,0,0-1,1A2.63,2.63,0,0,0,143.33,8.25Zm4-.77a1,1,0,0,1-.66,1l1,1.71h-.91L146,8.7h-.39v1.49h-.81V6.31h1.12a1.66,1.66,0,0,1,1.1.29A1.09,1.09,0,0,1,147.35,7.48Zm-1.76.6h.3a.69.69,0,0,0,.48-.15.54.54,0,0,0,.16-.43.52.52,0,0,0-.15-.43.79.79,0,0,0-.5-.13h-.29Z" transform="translate(-1.27 -3.46)"/></svg>