<svg width="131" height="147" viewBox="0 0 131 147" fill="none" xmlns="http://www.w3.org/2000/svg">
<path d="M100.496 48C102.105 48 103.652 48.8048 104.58 50.166L123.142 77.3906C124.318 79.1231 124.256 81.4124 123.081 83.083L78.531 144.958C77.6029 146.257 76.1173 147 74.5085 147C72.8999 147 71.4152 146.257 70.4871 144.958L25.9373 83.083C24.638 81.2888 24.6994 78.876 26.0603 77.1436L47.0984 49.918C48.0265 48.6807 49.5111 48.0001 50.9959 48H100.496ZM90.9998 62.5C90.9801 62.5 90.9639 62.5155 90.9626 62.5352C90.6766 67.0631 88.7485 71.3314 85.5398 74.54C82.3311 77.7487 78.0628 79.6768 73.5349 79.9629C73.5153 79.9641 73.4998 79.9803 73.4998 80C73.4998 80.0197 73.5153 80.0359 73.5349 80.0371C78.0628 80.3232 82.3311 82.2513 85.5398 85.46C88.7485 88.6686 90.6766 92.9369 90.9626 97.4648C90.9639 97.4845 90.9801 97.5 90.9998 97.5C91.0194 97.5 91.0356 97.4845 91.0369 97.4648C91.3234 92.9371 93.2512 88.6685 96.4597 85.46C99.6683 82.2514 103.937 80.3237 108.465 80.0371C108.484 80.0359 108.5 80.0197 108.5 80C108.5 79.9803 108.484 79.9641 108.465 79.9629C103.937 79.6763 99.6683 77.7486 96.4597 74.54C93.2512 71.3315 91.3234 67.0629 91.0369 62.5352C91.0356 62.5155 91.0194 62.5 90.9998 62.5Z" fill="white"/>
<g opacity="0.6">
<path d="M58.75 18.0315C54.6633 18.2824 50.8094 20.019 47.9142 22.9142C45.019 25.8094 43.2824 29.6633 43.0315 33.75H42.9685C42.7181 29.6631 40.9816 25.8089 38.0863 22.9137C35.1911 20.0184 31.3369 18.2819 27.25 18.0315V17.9685C31.3369 17.7181 35.1911 15.9816 38.0863 13.0863C40.9816 10.1911 42.7181 6.33687 42.9685 2.25H43.0315C43.2824 6.33671 45.019 10.1906 47.9142 13.0858C50.8094 15.981 54.6633 17.7176 58.75 17.9685V18.0315Z" fill="white"/>
</g>
<g opacity="0.85">
<path d="M25.3125 45.5236C22.2475 45.7118 19.357 47.0143 17.1856 49.1856C15.0143 51.357 13.7118 54.2475 13.5236 57.3125H13.4764C13.2885 54.2473 11.9862 51.3567 9.81475 49.1853C7.64329 47.0138 4.75265 45.7115 1.6875 45.5236V45.4764C4.75265 45.2885 7.64329 43.9862 9.81475 41.8147C11.9862 39.6433 13.2885 36.7527 13.4764 33.6875H13.5236C13.7118 36.7525 15.0143 39.643 17.1856 41.8143C19.357 43.9857 22.2475 45.2882 25.3125 45.4764V45.5236Z" fill="white"/>
</g>
<g opacity="0.6">
<path d="M129.312 38.5236C126.247 38.7118 123.357 40.0143 121.186 42.1856C119.014 44.357 117.712 47.2475 117.524 50.3125H117.476C117.289 47.2473 115.986 44.3567 113.815 42.1853C111.643 40.0138 108.753 38.7115 105.688 38.5236V38.4764C108.753 38.2885 111.643 36.9862 113.815 34.8147C115.986 32.6433 117.289 29.7527 117.476 26.6875H117.524C117.712 29.7525 119.014 32.643 121.186 34.8143C123.357 36.9857 126.247 38.2882 129.312 38.4764V38.5236Z" fill="white"/>
</g>
</svg>
